<svg xmlns="http://www.w3.org/2000/svg" version="1.1" xmlns:xlink="http://www.w3.org/1999/xlink" width="1000" height="1000"><g clip-path="url(#SvgjsClipPath1193)"><rect width="1000" height="1000" fill="#1a212b"></rect><g transform="matrix(1.7578125,0,0,1.7578125,50,50)"><svg xmlns="http://www.w3.org/2000/svg" version="1.1" xmlns:xlink="http://www.w3.org/1999/xlink" width="512" height="512"><svg xmlns="http://www.w3.org/2000/svg" xmlns:xlink="http://www.w3.org/1999/xlink" width="512" zoomAndPan="magnify" viewBox="0 0 384 383.999986" height="512" preserveAspectRatio="xMidYMid meet" version="1.2"><defs><clipPath id="da0f6135d5"><path d="M 107 122 L 165 122 L 165 346.90625 L 107 346.90625 Z M 107 122 "></path></clipPath><clipPath id="06059c0d8f"><path d="M 198 188 L 255 188 L 255 346.90625 L 198 346.90625 Z M 198 188 "></path></clipPath><clipPath id="cb330a6f95"><path d="M 294 89 L 352 89 L 352 346.90625 L 294 346.90625 Z M 294 89 "></path></clipPath><clipPath id="007983931c"><path d="M 13.925781 193 L 72 193 L 72 346.90625 L 13.925781 346.90625 Z M 13.925781 193 "></path></clipPath><clipPath id="d3bf0bd22c"><path d="M 16 37.15625 L 370.175781 37.15625 L 370.175781 216 L 16 216 Z M 16 37.15625 "></path></clipPath><clipPath id="SvgjsClipPath1193"><rect width="1000" height="1000" x="0" y="0" rx="200" ry="200"></rect></clipPath></defs><g id="515d384c44"><g clip-rule="nonzero" clip-path="url(#da0f6135d5)"><path style=" stroke:none;fill-rule:nonzero;fill:#00d09e;fill-opacity:1;" d="M 107.316406 152.683594 L 136.136719 122.371094 L 164.226562 152.683594 L 164.226562 346.835938 L 107.316406 346.835938 Z M 107.316406 152.683594 "></path></g><g clip-rule="nonzero" clip-path="url(#06059c0d8f)"><path style=" stroke:none;fill-rule:evenodd;fill:#00d09e;fill-opacity:1;" d="M 254.941406 192.074219 C 254.945312 192 254.945312 191.925781 254.945312 191.851562 C 254.945312 186.234375 252.28125 189.109375 247.875 193.863281 C 242.683594 199.46875 235.070312 207.683594 226.550781 207.683594 C 218.042969 207.683594 210.402344 199.492188 205.179688 193.890625 C 200.734375 189.121094 198.035156 186.226562 198.035156 191.851562 C 198.035156 191.925781 198.035156 192 198.035156 192.074219 L 198.035156 192.070312 L 198.035156 346.742188 L 254.945312 346.742188 L 254.945312 192.070312 Z M 254.941406 192.074219 "></path></g><g clip-rule="nonzero" clip-path="url(#cb330a6f95)"><path style=" stroke:none;fill-rule:nonzero;fill:#00d09e;fill-opacity:1;" d="M 294.585938 145.839844 L 351.496094 89.417969 L 351.496094 346.835938 L 294.585938 346.835938 Z M 294.585938 145.839844 "></path></g><g clip-rule="nonzero" clip-path="url(#007983931c)"><path style=" stroke:none;fill-rule:evenodd;fill:#00d09e;fill-opacity:1;" d="M 39.625 223.859375 L 14.167969 193.625 L 14.167969 208.449219 C 14.007812 208.835938 13.925781 209.40625 13.925781 210.195312 C 13.925781 210.984375 14.007812 211.761719 14.167969 212.527344 L 14.167969 346.835938 L 71.078125 346.835938 L 71.078125 193.625 L 44.464844 223.910156 C 43.757812 224.027344 43.042969 224.085938 42.320312 224.085938 C 41.410156 224.085938 40.511719 224.007812 39.625 223.859375 Z M 39.625 223.859375 "></path></g><g clip-rule="nonzero" clip-path="url(#d3bf0bd22c)"><path style=" stroke:none;fill-rule:evenodd;fill:#ffffff;fill-opacity:1;" d="M 356.542969 87.484375 L 370.070312 37.15625 L 319.945312 51.425781 L 328.945312 60.292969 L 227.875 162.050781 L 145.136719 76.648438 L 136.015625 66.679688 L 118.4375 86.75 L 118.15625 87.050781 L 118.164062 87.0625 L 38.277344 178.269531 L 16.257812 156.175781 L 16.257812 187.164062 L 41.941406 215.621094 L 44.257812 212.671875 L 136.667969 106.773438 L 207.664062 182.398438 L 207.59375 182.46875 L 212.859375 187.933594 L 224.324219 200.148438 L 224.480469 199.992188 L 226.757812 202.355469 L 349.207031 80.257812 Z M 356.542969 87.484375 "></path></g></g></svg></svg></g></g></svg>