<svg xmlns="http://www.w3.org/2000/svg" xmlns:xlink="http://www.w3.org/1999/xlink" width="1080" zoomAndPan="magnify" viewBox="0 0 810 149.999998" height="200" preserveAspectRatio="xMidYMid meet" version="1.0"><defs><g/><clipPath id="874ddfb0d9"><path d="M 35 54 L 51 54 L 51 115.738281 L 35 115.738281 Z M 35 54 " clip-rule="nonzero"/></clipPath><clipPath id="5e3743fe17"><path d="M 59 72 L 76 72 L 76 115.738281 L 59 115.738281 Z M 59 72 " clip-rule="nonzero"/></clipPath><clipPath id="017c2bf84b"><path d="M 86 45 L 102 45 L 102 115.738281 L 86 115.738281 Z M 86 45 " clip-rule="nonzero"/></clipPath><clipPath id="3c871688a2"><path d="M 9.546875 73 L 26 73 L 26 115.738281 L 9.546875 115.738281 Z M 9.546875 73 " clip-rule="nonzero"/></clipPath><clipPath id="ab5ee6db4d"><path d="M 10 30.988281 L 107.046875 30.988281 L 107.046875 80 L 10 80 Z M 10 30.988281 " clip-rule="nonzero"/></clipPath></defs><g clip-path="url(#874ddfb0d9)"><path fill="#2dd4bf" d="M 35.117188 62.617188 L 43.007812 54.320312 L 50.699219 62.617188 L 50.699219 115.773438 L 35.117188 115.773438 Z M 35.117188 62.617188 " fill-opacity="1" fill-rule="nonzero"/></g><g clip-path="url(#5e3743fe17)"><path fill="#2dd4bf" d="M 75.535156 73.402344 C 75.535156 73.382812 75.535156 73.363281 75.535156 73.34375 C 75.535156 71.804688 74.804688 72.589844 73.597656 73.894531 C 72.179688 75.429688 70.09375 77.675781 67.761719 77.675781 C 65.433594 77.675781 63.339844 75.433594 61.910156 73.898438 C 60.691406 72.59375 59.953125 71.800781 59.953125 73.34375 C 59.953125 73.363281 59.953125 73.382812 59.953125 73.402344 L 59.953125 115.75 L 75.535156 115.75 Z M 75.535156 73.402344 " fill-opacity="1" fill-rule="evenodd"/></g><g clip-path="url(#017c2bf84b)"><path fill="#2dd4bf" d="M 86.386719 60.746094 L 101.96875 45.296875 L 101.96875 115.773438 L 86.386719 115.773438 Z M 86.386719 60.746094 " fill-opacity="1" fill-rule="nonzero"/></g><g clip-path="url(#3c871688a2)"><path fill="#2dd4bf" d="M 16.582031 82.105469 L 9.613281 73.828125 L 9.613281 77.886719 C 9.570312 77.992188 9.546875 78.148438 9.546875 78.363281 C 9.546875 78.582031 9.570312 78.792969 9.613281 79.003906 L 9.613281 115.773438 L 25.195312 115.773438 L 25.195312 73.828125 L 17.910156 82.121094 C 17.714844 82.152344 17.519531 82.167969 17.320312 82.167969 C 17.074219 82.167969 16.828125 82.144531 16.582031 82.105469 Z M 16.582031 82.105469 " fill-opacity="1" fill-rule="evenodd"/></g><g clip-path="url(#ab5ee6db4d)"><path fill="#ffffff" d="M 103.351562 44.769531 L 107.054688 30.988281 L 93.332031 34.894531 L 95.796875 37.324219 L 68.125 65.183594 L 45.472656 41.800781 L 42.972656 39.070312 L 38.160156 44.566406 L 38.085938 44.648438 L 38.085938 44.652344 L 16.214844 69.625 L 10.1875 63.574219 L 10.1875 72.058594 L 17.21875 79.851562 L 17.851562 79.042969 L 43.152344 50.050781 L 62.589844 70.753906 L 62.570312 70.773438 L 64.011719 72.269531 L 67.152344 75.613281 L 67.195312 75.570312 L 67.820312 76.21875 L 101.34375 42.789062 Z M 103.351562 44.769531 " fill-opacity="1" fill-rule="evenodd"/></g><g fill="#ffffff" fill-opacity="1"><g transform="translate(111.150996, 115.291812)"><g><path d="M 23.1875 1.171875 C 18.957031 1.171875 14.835938 0.695312 10.828125 -0.25 C 6.816406 -1.195312 3.523438 -2.472656 0.953125 -4.078125 L 6.484375 -16.625 C 8.921875 -15.21875 11.644531 -14.085938 14.65625 -13.234375 C 17.664062 -12.378906 20.554688 -11.953125 23.328125 -11.953125 C 25.710938 -11.953125 27.414062 -12.179688 28.4375 -12.640625 C 29.457031 -13.109375 29.96875 -13.804688 29.96875 -14.734375 C 29.96875 -15.796875 29.296875 -16.59375 27.953125 -17.125 C 26.617188 -17.664062 24.421875 -18.253906 21.359375 -18.890625 C 17.421875 -19.710938 14.140625 -20.597656 11.515625 -21.546875 C 8.890625 -22.492188 6.601562 -24.046875 4.65625 -26.203125 C 2.71875 -28.367188 1.75 -31.300781 1.75 -35 C 1.75 -38.207031 2.644531 -41.125 4.4375 -43.75 C 6.238281 -46.375 8.925781 -48.441406 12.5 -49.953125 C 16.070312 -51.460938 20.410156 -52.21875 25.515625 -52.21875 C 29.015625 -52.21875 32.453125 -51.835938 35.828125 -51.078125 C 39.210938 -50.328125 42.195312 -49.222656 44.78125 -47.765625 L 39.59375 -35.296875 C 34.582031 -37.828125 29.84375 -39.09375 25.375 -39.09375 C 20.945312 -39.09375 18.734375 -38.019531 18.734375 -35.875 C 18.734375 -34.851562 19.390625 -34.085938 20.703125 -33.578125 C 22.015625 -33.066406 24.179688 -32.519531 27.203125 -31.9375 C 31.085938 -31.207031 34.367188 -30.367188 37.046875 -29.421875 C 39.722656 -28.472656 42.046875 -26.925781 44.015625 -24.78125 C 45.984375 -22.644531 46.96875 -19.734375 46.96875 -16.046875 C 46.96875 -12.835938 46.066406 -9.929688 44.265625 -7.328125 C 42.460938 -4.722656 39.773438 -2.65625 36.203125 -1.125 C 32.628906 0.40625 28.289062 1.171875 23.1875 1.171875 Z M 23.1875 1.171875 "/></g></g></g><g fill="#ffffff" fill-opacity="1"><g transform="translate(156.138817, 115.291812)"><g><path d="M 46.59375 -12.984375 L 46.59375 0 L 4.15625 0 L 4.15625 -51.046875 L 45.65625 -51.046875 L 45.65625 -38.0625 L 21.078125 -38.0625 L 21.078125 -32.078125 L 42.65625 -32.078125 L 42.65625 -19.6875 L 21.078125 -19.6875 L 21.078125 -12.984375 Z M 46.59375 -12.984375 "/></g></g></g><g fill="#ffffff" fill-opacity="1"><g transform="translate(202.29326, 115.291812)"><g><path d="M 30.921875 1.171875 C 25.421875 1.171875 20.484375 0.03125 16.109375 -2.25 C 11.734375 -4.539062 8.304688 -7.710938 5.828125 -11.765625 C 3.347656 -15.828125 2.109375 -20.410156 2.109375 -25.515625 C 2.109375 -30.617188 3.347656 -35.203125 5.828125 -39.265625 C 8.304688 -43.328125 11.734375 -46.5 16.109375 -48.78125 C 20.484375 -51.070312 25.421875 -52.21875 30.921875 -52.21875 C 36.410156 -52.21875 41.34375 -51.070312 45.71875 -48.78125 C 50.09375 -46.5 53.519531 -43.328125 56 -39.265625 C 58.476562 -35.203125 59.71875 -30.617188 59.71875 -25.515625 C 59.71875 -20.410156 58.476562 -15.828125 56 -11.765625 C 53.519531 -7.710938 50.09375 -4.539062 45.71875 -2.25 C 41.34375 0.03125 36.410156 1.171875 30.921875 1.171875 Z M 30.921875 -12.765625 C 33.054688 -12.765625 34.988281 -13.285156 36.71875 -14.328125 C 38.445312 -15.367188 39.820312 -16.847656 40.84375 -18.765625 C 41.863281 -20.691406 42.375 -22.941406 42.375 -25.515625 C 42.375 -28.097656 41.863281 -30.347656 40.84375 -32.265625 C 39.820312 -34.179688 38.445312 -35.660156 36.71875 -36.703125 C 34.988281 -37.753906 33.054688 -38.28125 30.921875 -38.28125 C 28.773438 -38.28125 26.835938 -37.753906 25.109375 -36.703125 C 23.390625 -35.660156 22.019531 -34.179688 21 -32.265625 C 19.976562 -30.347656 19.46875 -28.097656 19.46875 -25.515625 C 19.46875 -22.941406 19.976562 -20.691406 21 -18.765625 C 22.019531 -16.847656 23.390625 -15.367188 25.109375 -14.328125 C 26.835938 -13.285156 28.773438 -12.765625 30.921875 -12.765625 Z M 30.921875 -12.765625 "/></g></g></g><g fill="#ffffff" fill-opacity="1"><g transform="translate(261.209585, 115.291812)"><g/></g></g><g fill="#ffffff" fill-opacity="1"><g transform="translate(280.170521, 115.291812)"><g><path d="M 21.359375 -38.0625 L 21.359375 -29.3125 L 42.65625 -29.3125 L 42.65625 -16.328125 L 21.359375 -16.328125 L 21.359375 0 L 4.15625 0 L 4.15625 -51.046875 L 45.65625 -51.046875 L 45.65625 -38.0625 Z M 21.359375 -38.0625 "/></g></g></g><g fill="#ffffff" fill-opacity="1"><g transform="translate(323.481302, 115.291812)"><g><path d="M 47.25 -39.890625 L 47.25 0 L 31.578125 0 L 31.578125 -3.796875 C 30.117188 -2.285156 28.414062 -1.148438 26.46875 -0.390625 C 24.519531 0.359375 22.453125 0.734375 20.265625 0.734375 C 15.210938 0.734375 11.15625 -0.804688 8.09375 -3.890625 C 5.03125 -6.984375 3.5 -11.640625 3.5 -17.859375 L 3.5 -39.890625 L 19.984375 -39.890625 L 19.984375 -20.703125 C 19.984375 -17.984375 20.421875 -16.039062 21.296875 -14.875 C 22.171875 -13.707031 23.457031 -13.125 25.15625 -13.125 C 26.757812 -13.125 28.09375 -13.765625 29.15625 -15.046875 C 30.226562 -16.335938 30.765625 -18.367188 30.765625 -21.140625 L 30.765625 -39.890625 Z M 47.25 -39.890625 "/></g></g></g><g fill="#ffffff" fill-opacity="1"><g transform="translate(371.458595, 115.291812)"><g><path d="M 31.359375 -40.625 C 36.265625 -40.625 40.210938 -39.140625 43.203125 -36.171875 C 46.191406 -33.203125 47.6875 -28.726562 47.6875 -22.75 L 47.6875 0 L 31.203125 0 L 31.203125 -19.90625 C 31.203125 -24.476562 29.578125 -26.765625 26.328125 -26.765625 C 24.472656 -26.765625 22.972656 -26.117188 21.828125 -24.828125 C 20.691406 -23.535156 20.125 -21.503906 20.125 -18.734375 L 20.125 0 L 3.640625 0 L 3.640625 -39.890625 L 19.328125 -39.890625 L 19.328125 -35.953125 C 20.878906 -37.503906 22.675781 -38.671875 24.71875 -39.453125 C 26.757812 -40.234375 28.972656 -40.625 31.359375 -40.625 Z M 31.359375 -40.625 "/></g></g></g><g fill="#ffffff" fill-opacity="1"><g transform="translate(420.456688, 115.291812)"><g><path d="M 47.765625 -54.109375 L 47.765625 0 L 32.078125 0 L 32.078125 -3.28125 C 29.703125 -0.601562 26.054688 0.734375 21.140625 0.734375 C 17.640625 0.734375 14.421875 -0.101562 11.484375 -1.78125 C 8.546875 -3.457031 6.210938 -5.875 4.484375 -9.03125 C 2.753906 -12.195312 1.890625 -15.847656 1.890625 -19.984375 C 1.890625 -24.109375 2.753906 -27.738281 4.484375 -30.875 C 6.210938 -34.007812 8.546875 -36.414062 11.484375 -38.09375 C 14.421875 -39.78125 17.640625 -40.625 21.140625 -40.625 C 25.566406 -40.625 28.945312 -39.476562 31.28125 -37.1875 L 31.28125 -54.109375 Z M 25.078125 -12.109375 C 26.972656 -12.109375 28.53125 -12.800781 29.75 -14.1875 C 30.96875 -15.570312 31.578125 -17.503906 31.578125 -19.984375 C 31.578125 -22.460938 30.96875 -24.378906 29.75 -25.734375 C 28.53125 -27.097656 26.972656 -27.78125 25.078125 -27.78125 C 23.179688 -27.78125 21.625 -27.097656 20.40625 -25.734375 C 19.195312 -24.378906 18.59375 -22.460938 18.59375 -19.984375 C 18.59375 -17.503906 19.195312 -15.570312 20.40625 -14.1875 C 21.625 -12.800781 23.179688 -12.109375 25.078125 -12.109375 Z M 25.078125 -12.109375 "/></g></g></g><g fill="#ffffff" fill-opacity="1"><g transform="translate(468.944375, 115.291812)"><g><path d="M 21.515625 -40.625 C 28.515625 -40.625 33.859375 -39.050781 37.546875 -35.90625 C 41.242188 -32.769531 43.09375 -27.945312 43.09375 -21.4375 L 43.09375 0 L 27.78125 0 L 27.78125 -5.25 C 25.882812 -1.257812 22.117188 0.734375 16.484375 0.734375 C 13.316406 0.734375 10.628906 0.1875 8.421875 -0.90625 C 6.210938 -2 4.535156 -3.484375 3.390625 -5.359375 C 2.242188 -7.234375 1.671875 -9.335938 1.671875 -11.671875 C 1.671875 -15.609375 3.175781 -18.597656 6.1875 -20.640625 C 9.207031 -22.679688 13.78125 -23.703125 19.90625 -23.703125 L 26.546875 -23.703125 C 26.003906 -26.804688 23.5 -28.359375 19.03125 -28.359375 C 17.226562 -28.359375 15.40625 -28.078125 13.5625 -27.515625 C 11.71875 -26.960938 10.140625 -26.203125 8.828125 -25.234375 L 3.578125 -36.09375 C 5.859375 -37.507812 8.613281 -38.617188 11.84375 -39.421875 C 15.082031 -40.222656 18.304688 -40.625 21.515625 -40.625 Z M 21.4375 -9.1875 C 22.601562 -9.1875 23.644531 -9.5 24.5625 -10.125 C 25.488281 -10.757812 26.171875 -11.710938 26.609375 -12.984375 L 26.609375 -15.75 L 22.53125 -15.75 C 19.175781 -15.75 17.5 -14.628906 17.5 -12.390625 C 17.5 -11.472656 17.847656 -10.707031 18.546875 -10.09375 C 19.253906 -9.488281 20.21875 -9.1875 21.4375 -9.1875 Z M 21.4375 -9.1875 "/></g></g></g><g fill="#ffffff" fill-opacity="1"><g transform="translate(512.619742, 115.291812)"><g><path d="M 56.4375 -40.625 C 61.25 -40.625 65.101562 -39.140625 68 -36.171875 C 70.894531 -33.203125 72.34375 -28.726562 72.34375 -22.75 L 72.34375 0 L 55.859375 0 L 55.859375 -19.90625 C 55.859375 -24.476562 54.375 -26.765625 51.40625 -26.765625 C 49.851562 -26.765625 48.601562 -26.179688 47.65625 -25.015625 C 46.707031 -23.847656 46.234375 -22 46.234375 -19.46875 L 46.234375 0 L 29.75 0 L 29.75 -19.90625 C 29.75 -24.476562 28.265625 -26.765625 25.296875 -26.765625 C 23.742188 -26.765625 22.492188 -26.179688 21.546875 -25.015625 C 20.597656 -23.847656 20.125 -22 20.125 -19.46875 L 20.125 0 L 3.640625 0 L 3.640625 -39.890625 L 19.328125 -39.890625 L 19.328125 -36.171875 C 22.285156 -39.140625 26.050781 -40.625 30.625 -40.625 C 33.300781 -40.625 35.707031 -40.125 37.84375 -39.125 C 39.988281 -38.125 41.738281 -36.601562 43.09375 -34.5625 C 44.695312 -36.507812 46.640625 -38.003906 48.921875 -39.046875 C 51.210938 -40.097656 53.71875 -40.625 56.4375 -40.625 Z M 56.4375 -40.625 "/></g></g></g><g fill="#ffffff" fill-opacity="1"><g transform="translate(586.262789, 115.291812)"><g><path d="M 46.09375 -19.984375 C 46.09375 -19.734375 46.019531 -18.441406 45.875 -16.109375 L 18.15625 -16.109375 C 18.738281 -14.609375 19.707031 -13.457031 21.0625 -12.65625 C 22.425781 -11.851562 24.128906 -11.453125 26.171875 -11.453125 C 27.921875 -11.453125 29.390625 -11.671875 30.578125 -12.109375 C 31.773438 -12.546875 33.078125 -13.296875 34.484375 -14.359375 L 43.09375 -5.6875 C 39.207031 -1.40625 33.398438 0.734375 25.671875 0.734375 C 20.859375 0.734375 16.628906 -0.148438 12.984375 -1.921875 C 9.335938 -3.703125 6.515625 -6.171875 4.515625 -9.328125 C 2.523438 -12.492188 1.53125 -16.046875 1.53125 -19.984375 C 1.53125 -23.960938 2.515625 -27.519531 4.484375 -30.65625 C 6.453125 -33.789062 9.148438 -36.234375 12.578125 -37.984375 C 16.003906 -39.742188 19.859375 -40.625 24.140625 -40.625 C 28.171875 -40.625 31.851562 -39.820312 35.1875 -38.21875 C 38.519531 -36.613281 41.171875 -34.253906 43.140625 -31.140625 C 45.109375 -28.023438 46.09375 -24.304688 46.09375 -19.984375 Z M 24.28125 -29.390625 C 22.582031 -29.390625 21.171875 -28.925781 20.046875 -28 C 18.929688 -27.070312 18.203125 -25.757812 17.859375 -24.0625 L 30.703125 -24.0625 C 30.359375 -25.71875 29.625 -27.019531 28.5 -27.96875 C 27.382812 -28.914062 25.976562 -29.390625 24.28125 -29.390625 Z M 24.28125 -29.390625 "/></g></g></g><g fill="#ffffff" fill-opacity="1"><g transform="translate(630.958945, 115.291812)"><g><path d="M 31.359375 -40.625 C 36.265625 -40.625 40.210938 -39.140625 43.203125 -36.171875 C 46.191406 -33.203125 47.6875 -28.726562 47.6875 -22.75 L 47.6875 0 L 31.203125 0 L 31.203125 -19.90625 C 31.203125 -24.476562 29.578125 -26.765625 26.328125 -26.765625 C 24.472656 -26.765625 22.972656 -26.117188 21.828125 -24.828125 C 20.691406 -23.535156 20.125 -21.503906 20.125 -18.734375 L 20.125 0 L 3.640625 0 L 3.640625 -39.890625 L 19.328125 -39.890625 L 19.328125 -35.953125 C 20.878906 -37.503906 22.675781 -38.671875 24.71875 -39.453125 C 26.757812 -40.234375 28.972656 -40.625 31.359375 -40.625 Z M 31.359375 -40.625 "/></g></g></g><g fill="#ffffff" fill-opacity="1"><g transform="translate(679.227902, 115.291812)"><g><path d="M 33.03125 -1.390625 C 30.550781 0.0234375 27.171875 0.734375 22.890625 0.734375 C 17.304688 0.734375 13.003906 -0.613281 9.984375 -3.3125 C 6.972656 -6.007812 5.46875 -10.054688 5.46875 -15.453125 L 5.46875 -25.671875 L 0 -25.671875 L 0 -37.703125 L 5.46875 -37.703125 L 5.46875 -48.859375 L 21.953125 -48.859375 L 21.953125 -37.703125 L 30.109375 -37.703125 L 30.109375 -25.671875 L 21.953125 -25.671875 L 21.953125 -15.609375 C 21.953125 -14.390625 22.265625 -13.4375 22.890625 -12.75 C 23.523438 -12.070312 24.351562 -11.734375 25.375 -11.734375 C 26.78125 -11.734375 28.019531 -12.097656 29.09375 -12.828125 Z M 33.03125 -1.390625 "/></g></g></g><g fill="#ffffff" fill-opacity="1"><g transform="translate(708.757914, 115.291812)"><g><path d="M 24.71875 0.734375 C 20.289062 0.734375 16.316406 -0.148438 12.796875 -1.921875 C 9.273438 -3.703125 6.515625 -6.160156 4.515625 -9.296875 C 2.523438 -12.429688 1.53125 -15.992188 1.53125 -19.984375 C 1.53125 -23.960938 2.523438 -27.519531 4.515625 -30.65625 C 6.515625 -33.789062 9.273438 -36.234375 12.796875 -37.984375 C 16.316406 -39.742188 20.289062 -40.625 24.71875 -40.625 C 29.1875 -40.625 33.179688 -39.742188 36.703125 -37.984375 C 40.234375 -36.234375 42.984375 -33.789062 44.953125 -30.65625 C 46.921875 -27.519531 47.90625 -23.960938 47.90625 -19.984375 C 47.90625 -15.992188 46.921875 -12.429688 44.953125 -9.296875 C 42.984375 -6.160156 40.234375 -3.703125 36.703125 -1.921875 C 33.179688 -0.148438 29.1875 0.734375 24.71875 0.734375 Z M 24.71875 -12.109375 C 26.613281 -12.109375 28.164062 -12.800781 29.375 -14.1875 C 30.59375 -15.570312 31.203125 -17.503906 31.203125 -19.984375 C 31.203125 -22.460938 30.59375 -24.378906 29.375 -25.734375 C 28.164062 -27.097656 26.613281 -27.78125 24.71875 -27.78125 C 22.820312 -27.78125 21.265625 -27.097656 20.046875 -25.734375 C 18.835938 -24.378906 18.234375 -22.460938 18.234375 -19.984375 C 18.234375 -17.503906 18.835938 -15.570312 20.046875 -14.1875 C 21.265625 -12.800781 22.820312 -12.109375 24.71875 -12.109375 Z M 24.71875 -12.109375 "/></g></g></g><g fill="#ffffff" fill-opacity="1"><g transform="translate(755.276909, 115.291812)"><g><path d="M 19.25 0.734375 C 15.84375 0.734375 12.488281 0.367188 9.1875 -0.359375 C 5.882812 -1.085938 3.210938 -2.035156 1.171875 -3.203125 L 5.6875 -14.078125 C 7.53125 -12.953125 9.71875 -12.070312 12.25 -11.4375 C 14.78125 -10.8125 17.234375 -10.5 19.609375 -10.5 C 21.503906 -10.5 22.828125 -10.65625 23.578125 -10.96875 C 24.335938 -11.289062 24.71875 -11.765625 24.71875 -12.390625 C 24.71875 -13.023438 24.242188 -13.460938 23.296875 -13.703125 C 22.347656 -13.953125 20.804688 -14.195312 18.671875 -14.4375 C 15.410156 -14.820312 12.632812 -15.316406 10.34375 -15.921875 C 8.0625 -16.535156 6.054688 -17.71875 4.328125 -19.46875 C 2.609375 -21.21875 1.75 -23.722656 1.75 -26.984375 C 1.75 -29.554688 2.523438 -31.863281 4.078125 -33.90625 C 5.640625 -35.945312 7.960938 -37.578125 11.046875 -38.796875 C 14.128906 -40.015625 17.835938 -40.625 22.171875 -40.625 C 25.179688 -40.625 28.128906 -40.34375 31.015625 -39.78125 C 33.910156 -39.21875 36.382812 -38.40625 38.4375 -37.34375 L 33.90625 -26.46875 C 30.40625 -28.414062 26.566406 -29.390625 22.390625 -29.390625 C 18.785156 -29.390625 16.984375 -28.753906 16.984375 -27.484375 C 16.984375 -26.859375 17.46875 -26.410156 18.4375 -26.140625 C 19.414062 -25.867188 20.953125 -25.613281 23.046875 -25.375 C 26.296875 -24.988281 29.050781 -24.476562 31.3125 -23.84375 C 33.570312 -23.207031 35.566406 -22.015625 37.296875 -20.265625 C 39.023438 -18.515625 39.890625 -16.015625 39.890625 -12.765625 C 39.890625 -10.285156 39.109375 -8.023438 37.546875 -5.984375 C 35.992188 -3.941406 33.660156 -2.3125 30.546875 -1.09375 C 27.441406 0.125 23.675781 0.734375 19.25 0.734375 Z M 19.25 0.734375 "/></g></g></g></svg>