<svg xmlns="http://www.w3.org/2000/svg" xmlns:xlink="http://www.w3.org/1999/xlink" width="1080" zoomAndPan="magnify" viewBox="0 0 810 299.999988" height="400" preserveAspectRatio="xMidYMid meet" version="1.2"><defs><clipPath id="fe2cb4bfb0"><path d="M 30 118.382812 L 123.75 118.382812 L 123.75 166 L 30 166 Z M 30 118.382812 "/></clipPath><clipPath id="0d9033f654"><rect x="0" width="667" y="0" height="84"/></clipPath></defs><g id="e6a0d97883"><path style=" stroke:none;fill-rule:nonzero;fill:#2dd4bf;fill-opacity:1;" d="M 54.585938 148.796875 L 62.175781 140.816406 L 69.570312 148.796875 L 69.570312 199.910156 L 54.585938 199.910156 Z M 54.585938 148.796875 "/><path style=" stroke:none;fill-rule:evenodd;fill:#2dd4bf;fill-opacity:1;" d="M 93.453125 159.164062 C 93.453125 159.144531 93.453125 159.125 93.453125 159.105469 C 93.453125 157.628906 92.75 158.382812 91.589844 159.636719 C 90.222656 161.113281 88.21875 163.273438 85.976562 163.273438 C 83.738281 163.273438 81.726562 161.117188 80.351562 159.644531 C 79.179688 158.386719 78.46875 157.625 78.46875 159.105469 C 78.46875 159.125 78.46875 159.144531 78.46875 159.164062 L 78.46875 199.882812 L 93.453125 199.882812 Z M 93.453125 159.164062 "/><path style=" stroke:none;fill-rule:nonzero;fill:#2dd4bf;fill-opacity:1;" d="M 103.886719 146.992188 L 118.871094 132.140625 L 118.871094 199.910156 L 103.886719 199.910156 Z M 103.886719 146.992188 "/><path style=" stroke:none;fill-rule:evenodd;fill:#2dd4bf;fill-opacity:1;" d="M 36.765625 167.53125 L 30.066406 159.574219 L 30.066406 163.476562 C 30.023438 163.578125 30 163.726562 30 163.9375 C 30 164.144531 30.023438 164.347656 30.066406 164.550781 L 30.066406 199.910156 L 45.046875 199.910156 L 45.046875 159.574219 L 38.042969 167.546875 C 37.855469 167.578125 37.667969 167.59375 37.476562 167.59375 C 37.238281 167.59375 37 167.570312 36.765625 167.53125 Z M 36.765625 167.53125 "/><g clip-rule="nonzero" clip-path="url(#fe2cb4bfb0)"><path style=" stroke:none;fill-rule:evenodd;fill:#ffffff;fill-opacity:1;" d="M 120.199219 131.628906 L 123.761719 118.382812 L 110.566406 122.136719 L 112.933594 124.472656 L 86.324219 151.261719 L 64.542969 128.777344 L 62.144531 126.152344 L 57.515625 131.4375 L 57.441406 131.515625 L 57.441406 131.519531 L 36.410156 155.53125 L 30.613281 149.714844 L 30.613281 157.871094 L 37.375 165.363281 L 37.988281 164.585938 L 62.316406 136.707031 L 81.003906 156.617188 L 80.988281 156.636719 L 82.371094 158.074219 L 85.390625 161.289062 L 85.433594 161.25 L 86.03125 161.871094 L 118.269531 129.726562 Z M 120.199219 131.628906 "/></g><g transform="matrix(1,0,0,1,120,133)"><g clip-path="url(#0d9033f654)"><g style="fill:#ffffff;fill-opacity:1;"><g transform="translate(0.166017, 61.727687)"><path style="stroke:none" d="M 22.296875 1.125 C 18.222656 1.125 14.257812 0.671875 10.40625 -0.234375 C 6.550781 -1.148438 3.382812 -2.378906 0.90625 -3.921875 L 6.234375 -15.984375 C 8.578125 -14.628906 11.195312 -13.539062 14.09375 -12.71875 C 16.988281 -11.90625 19.769531 -11.5 22.4375 -11.5 C 24.726562 -11.5 26.363281 -11.71875 27.34375 -12.15625 C 28.320312 -12.601562 28.8125 -13.269531 28.8125 -14.15625 C 28.8125 -15.1875 28.164062 -15.957031 26.875 -16.46875 C 25.59375 -16.988281 23.484375 -17.550781 20.546875 -18.15625 C 16.753906 -18.945312 13.597656 -19.796875 11.078125 -20.703125 C 8.554688 -21.617188 6.359375 -23.117188 4.484375 -25.203125 C 2.617188 -27.285156 1.6875 -30.101562 1.6875 -33.65625 C 1.6875 -36.738281 2.550781 -39.539062 4.28125 -42.0625 C 6.007812 -44.582031 8.585938 -46.566406 12.015625 -48.015625 C 15.453125 -49.472656 19.625 -50.203125 24.53125 -50.203125 C 27.90625 -50.203125 31.210938 -49.835938 34.453125 -49.109375 C 37.703125 -48.390625 40.566406 -47.328125 43.046875 -45.921875 L 38.0625 -33.9375 C 33.25 -36.363281 28.691406 -37.578125 24.390625 -37.578125 C 20.140625 -37.578125 18.015625 -36.550781 18.015625 -34.5 C 18.015625 -33.507812 18.644531 -32.769531 19.90625 -32.28125 C 21.164062 -31.789062 23.25 -31.265625 26.15625 -30.703125 C 29.894531 -30.003906 33.046875 -29.195312 35.609375 -28.28125 C 38.179688 -27.375 40.414062 -25.890625 42.3125 -23.828125 C 44.207031 -21.773438 45.15625 -18.972656 45.15625 -15.421875 C 45.15625 -12.335938 44.289062 -9.546875 42.5625 -7.046875 C 40.832031 -4.546875 38.25 -2.554688 34.8125 -1.078125 C 31.375 0.390625 27.203125 1.125 22.296875 1.125 Z M 22.296875 1.125 "/></g></g><g style="fill:#ffffff;fill-opacity:1;"><g transform="translate(43.566494, 61.727687)"><path style="stroke:none" d="M 44.796875 -12.484375 L 44.796875 0 L 4 0 L 4 -49.078125 L 43.890625 -49.078125 L 43.890625 -36.59375 L 20.265625 -36.59375 L 20.265625 -30.84375 L 41.015625 -30.84375 L 41.015625 -18.921875 L 20.265625 -18.921875 L 20.265625 -12.484375 Z M 44.796875 -12.484375 "/></g></g><g style="fill:#ffffff;fill-opacity:1;"><g transform="translate(88.088774, 61.727687)"><path style="stroke:none" d="M 29.71875 1.125 C 24.4375 1.125 19.691406 0.0234375 15.484375 -2.171875 C 11.285156 -4.367188 7.992188 -7.414062 5.609375 -11.3125 C 3.222656 -15.21875 2.03125 -19.625 2.03125 -24.53125 C 2.03125 -29.445312 3.222656 -33.851562 5.609375 -37.75 C 7.992188 -41.65625 11.285156 -44.707031 15.484375 -46.90625 C 19.691406 -49.101562 24.4375 -50.203125 29.71875 -50.203125 C 35.007812 -50.203125 39.753906 -49.101562 43.953125 -46.90625 C 48.160156 -44.707031 51.457031 -41.65625 53.84375 -37.75 C 56.226562 -33.851562 57.421875 -29.445312 57.421875 -24.53125 C 57.421875 -19.625 56.226562 -15.21875 53.84375 -11.3125 C 51.457031 -7.414062 48.160156 -4.367188 43.953125 -2.171875 C 39.753906 0.0234375 35.007812 1.125 29.71875 1.125 Z M 29.71875 -12.265625 C 31.78125 -12.265625 33.640625 -12.765625 35.296875 -13.765625 C 36.953125 -14.773438 38.269531 -16.203125 39.25 -18.046875 C 40.238281 -19.898438 40.734375 -22.0625 40.734375 -24.53125 C 40.734375 -27.007812 40.238281 -29.171875 39.25 -31.015625 C 38.269531 -32.867188 36.953125 -34.296875 35.296875 -35.296875 C 33.640625 -36.304688 31.78125 -36.8125 29.71875 -36.8125 C 27.664062 -36.8125 25.804688 -36.304688 24.140625 -35.296875 C 22.484375 -34.296875 21.164062 -32.867188 20.1875 -31.015625 C 19.207031 -29.171875 18.71875 -27.007812 18.71875 -24.53125 C 18.71875 -22.0625 19.207031 -19.898438 20.1875 -18.046875 C 21.164062 -16.203125 22.484375 -14.773438 24.140625 -13.765625 C 25.804688 -12.765625 27.664062 -12.265625 29.71875 -12.265625 Z M 29.71875 -12.265625 "/></g></g><g style="fill:#ffffff;fill-opacity:1;"><g transform="translate(144.912238, 61.727687)"><path style="stroke:none" d=""/></g></g><g style="fill:#ffffff;fill-opacity:1;"><g transform="translate(163.33075, 61.727687)"><path style="stroke:none" d="M 20.546875 -36.59375 L 20.546875 -28.1875 L 41.015625 -28.1875 L 41.015625 -15.703125 L 20.546875 -15.703125 L 20.546875 0 L 4 0 L 4 -49.078125 L 43.890625 -49.078125 L 43.890625 -36.59375 Z M 20.546875 -36.59375 "/></g></g><g style="fill:#ffffff;fill-opacity:1;"><g transform="translate(205.118563, 61.727687)"><path style="stroke:none" d="M 45.4375 -38.34375 L 45.4375 0 L 30.359375 0 L 30.359375 -3.640625 C 28.953125 -2.191406 27.3125 -1.101562 25.4375 -0.375 C 23.570312 0.34375 21.585938 0.703125 19.484375 0.703125 C 14.628906 0.703125 10.726562 -0.78125 7.78125 -3.75 C 4.832031 -6.71875 3.359375 -11.191406 3.359375 -17.171875 L 3.359375 -38.34375 L 19.203125 -38.34375 L 19.203125 -19.90625 C 19.203125 -17.289062 19.625 -15.421875 20.46875 -14.296875 C 21.3125 -13.179688 22.550781 -12.625 24.1875 -12.625 C 25.726562 -12.625 27.015625 -13.238281 28.046875 -14.46875 C 29.078125 -15.707031 29.59375 -17.660156 29.59375 -20.328125 L 29.59375 -38.34375 Z M 45.4375 -38.34375 "/></g></g><g style="fill:#ffffff;fill-opacity:1;"><g transform="translate(251.393723, 61.727687)"><path style="stroke:none" d="M 30.140625 -39.046875 C 34.867188 -39.046875 38.664062 -37.617188 41.53125 -34.765625 C 44.40625 -31.921875 45.84375 -27.625 45.84375 -21.875 L 45.84375 0 L 30 0 L 30 -19.140625 C 30 -23.535156 28.4375 -25.734375 25.3125 -25.734375 C 23.53125 -25.734375 22.085938 -25.113281 20.984375 -23.875 C 19.890625 -22.632812 19.34375 -20.679688 19.34375 -18.015625 L 19.34375 0 L 3.5 0 L 3.5 -38.34375 L 18.578125 -38.34375 L 18.578125 -34.5625 C 20.078125 -36.0625 21.804688 -37.179688 23.765625 -37.921875 C 25.734375 -38.671875 27.859375 -39.046875 30.140625 -39.046875 Z M 30.140625 -39.046875 "/></g></g><g style="fill:#ffffff;fill-opacity:1;"><g transform="translate(298.650469, 61.727687)"><path style="stroke:none" d="M 45.921875 -52.015625 L 45.921875 0 L 30.84375 0 L 30.84375 -3.15625 C 28.550781 -0.582031 25.046875 0.703125 20.328125 0.703125 C 16.960938 0.703125 13.863281 -0.101562 11.03125 -1.71875 C 8.207031 -3.332031 5.96875 -5.65625 4.3125 -8.6875 C 2.65625 -11.726562 1.828125 -15.234375 1.828125 -19.203125 C 1.828125 -23.179688 2.65625 -26.675781 4.3125 -29.6875 C 5.96875 -32.707031 8.207031 -35.019531 11.03125 -36.625 C 13.863281 -38.238281 16.960938 -39.046875 20.328125 -39.046875 C 24.585938 -39.046875 27.835938 -37.945312 30.078125 -35.75 L 30.078125 -52.015625 Z M 24.125 -11.640625 C 25.945312 -11.640625 27.441406 -12.304688 28.609375 -13.640625 C 29.773438 -14.972656 30.359375 -16.828125 30.359375 -19.203125 C 30.359375 -21.585938 29.773438 -23.4375 28.609375 -24.75 C 27.441406 -26.0625 25.945312 -26.71875 24.125 -26.71875 C 22.300781 -26.71875 20.800781 -26.0625 19.625 -24.75 C 18.457031 -23.4375 17.875 -21.585938 17.875 -19.203125 C 17.875 -16.828125 18.457031 -14.972656 19.625 -13.640625 C 20.800781 -12.304688 22.300781 -11.640625 24.125 -11.640625 Z M 24.125 -11.640625 "/></g></g><g style="fill:#ffffff;fill-opacity:1;"><g transform="translate(345.416421, 61.727687)"><path style="stroke:none" d="M 20.6875 -39.046875 C 27.414062 -39.046875 32.554688 -37.535156 36.109375 -34.515625 C 39.660156 -31.503906 41.4375 -26.867188 41.4375 -20.609375 L 41.4375 0 L 26.71875 0 L 26.71875 -5.046875 C 24.894531 -1.210938 21.269531 0.703125 15.84375 0.703125 C 12.800781 0.703125 10.21875 0.175781 8.09375 -0.875 C 5.96875 -1.925781 4.351562 -3.351562 3.25 -5.15625 C 2.15625 -6.957031 1.609375 -8.976562 1.609375 -11.21875 C 1.609375 -15 3.054688 -17.867188 5.953125 -19.828125 C 8.859375 -21.796875 13.253906 -22.78125 19.140625 -22.78125 L 25.515625 -22.78125 C 25.003906 -25.769531 22.597656 -27.265625 18.296875 -27.265625 C 16.566406 -27.265625 14.8125 -26.992188 13.03125 -26.453125 C 11.257812 -25.921875 9.742188 -25.191406 8.484375 -24.265625 L 3.4375 -34.703125 C 5.632812 -36.054688 8.285156 -37.117188 11.390625 -37.890625 C 14.503906 -38.660156 17.601562 -39.046875 20.6875 -39.046875 Z M 20.609375 -8.828125 C 21.734375 -8.828125 22.738281 -9.128906 23.625 -9.734375 C 24.507812 -10.347656 25.164062 -11.265625 25.59375 -12.484375 L 25.59375 -15.140625 L 21.65625 -15.140625 C 18.4375 -15.140625 16.828125 -14.066406 16.828125 -11.921875 C 16.828125 -11.035156 17.164062 -10.296875 17.84375 -9.703125 C 18.519531 -9.117188 19.441406 -8.828125 20.609375 -8.828125 Z M 20.609375 -8.828125 "/></g></g><g style="fill:#ffffff;fill-opacity:1;"><g transform="translate(387.554811, 61.727687)"><path style="stroke:none" d="M 54.265625 -39.046875 C 58.890625 -39.046875 62.59375 -37.617188 65.375 -34.765625 C 68.15625 -31.921875 69.546875 -27.625 69.546875 -21.875 L 69.546875 0 L 53.703125 0 L 53.703125 -19.140625 C 53.703125 -23.535156 52.273438 -25.734375 49.421875 -25.734375 C 47.929688 -25.734375 46.726562 -25.171875 45.8125 -24.046875 C 44.90625 -22.921875 44.453125 -21.144531 44.453125 -18.71875 L 44.453125 0 L 28.609375 0 L 28.609375 -19.140625 C 28.609375 -23.535156 27.179688 -25.734375 24.328125 -25.734375 C 22.828125 -25.734375 21.617188 -25.171875 20.703125 -24.046875 C 19.796875 -22.921875 19.34375 -21.144531 19.34375 -18.71875 L 19.34375 0 L 3.5 0 L 3.5 -38.34375 L 18.578125 -38.34375 L 18.578125 -34.78125 C 21.429688 -37.625 25.054688 -39.046875 29.453125 -39.046875 C 32.015625 -39.046875 34.320312 -38.566406 36.375 -37.609375 C 38.4375 -36.648438 40.125 -35.191406 41.4375 -33.234375 C 42.976562 -35.097656 44.847656 -36.53125 47.046875 -37.53125 C 49.242188 -38.539062 51.648438 -39.046875 54.265625 -39.046875 Z M 54.265625 -39.046875 "/></g></g><g style="fill:#ffffff;fill-opacity:1;"><g transform="translate(458.509971, 61.727687)"><path style="stroke:none" d="M 44.3125 -19.203125 C 44.3125 -18.972656 44.238281 -17.738281 44.09375 -15.5 L 17.453125 -15.5 C 18.015625 -14.050781 18.945312 -12.9375 20.25 -12.15625 C 21.5625 -11.382812 23.203125 -11 25.171875 -11 C 26.847656 -11 28.257812 -11.207031 29.40625 -11.625 C 30.550781 -12.050781 31.800781 -12.78125 33.15625 -13.8125 L 41.4375 -5.46875 C 37.695312 -1.351562 32.109375 0.703125 24.671875 0.703125 C 20.046875 0.703125 15.976562 -0.148438 12.46875 -1.859375 C 8.96875 -3.566406 6.257812 -5.9375 4.34375 -8.96875 C 2.425781 -12.007812 1.46875 -15.421875 1.46875 -19.203125 C 1.46875 -23.035156 2.414062 -26.457031 4.3125 -29.46875 C 6.207031 -32.488281 8.800781 -34.835938 12.09375 -36.515625 C 15.382812 -38.203125 19.085938 -39.046875 23.203125 -39.046875 C 27.085938 -39.046875 30.628906 -38.273438 33.828125 -36.734375 C 37.023438 -35.191406 39.570312 -32.925781 41.46875 -29.9375 C 43.363281 -26.945312 44.3125 -23.367188 44.3125 -19.203125 Z M 23.34375 -28.25 C 21.707031 -28.25 20.351562 -27.804688 19.28125 -26.921875 C 18.207031 -26.035156 17.503906 -24.773438 17.171875 -23.140625 L 29.515625 -23.140625 C 29.191406 -24.722656 28.488281 -25.96875 27.40625 -26.875 C 26.332031 -27.789062 24.976562 -28.25 23.34375 -28.25 Z M 23.34375 -28.25 "/></g></g><g style="fill:#ffffff;fill-opacity:1;"><g transform="translate(501.630013, 61.727687)"><path style="stroke:none" d="M 30.140625 -39.046875 C 34.867188 -39.046875 38.664062 -37.617188 41.53125 -34.765625 C 44.40625 -31.921875 45.84375 -27.625 45.84375 -21.875 L 45.84375 0 L 30 0 L 30 -19.140625 C 30 -23.535156 28.4375 -25.734375 25.3125 -25.734375 C 23.53125 -25.734375 22.085938 -25.113281 20.984375 -23.875 C 19.890625 -22.632812 19.34375 -20.679688 19.34375 -18.015625 L 19.34375 0 L 3.5 0 L 3.5 -38.34375 L 18.578125 -38.34375 L 18.578125 -34.5625 C 20.078125 -36.0625 21.804688 -37.179688 23.765625 -37.921875 C 25.734375 -38.671875 27.859375 -39.046875 30.140625 -39.046875 Z M 30.140625 -39.046875 "/></g></g><g style="fill:#ffffff;fill-opacity:1;"><g transform="translate(548.185607, 61.727687)"><path style="stroke:none" d="M 31.765625 -1.328125 C 29.378906 0.0234375 26.128906 0.703125 22.015625 0.703125 C 16.640625 0.703125 12.503906 -0.59375 9.609375 -3.1875 C 6.710938 -5.78125 5.265625 -9.671875 5.265625 -14.859375 L 5.265625 -24.671875 L 0 -24.671875 L 0 -36.25 L 5.265625 -36.25 L 5.265625 -46.96875 L 21.109375 -46.96875 L 21.109375 -36.25 L 28.953125 -36.25 L 28.953125 -24.671875 L 21.109375 -24.671875 L 21.109375 -15 C 21.109375 -13.832031 21.410156 -12.921875 22.015625 -12.265625 C 22.617188 -11.609375 23.410156 -11.28125 24.390625 -11.28125 C 25.753906 -11.28125 26.945312 -11.632812 27.96875 -12.34375 Z M 31.765625 -1.328125 "/></g></g><g style="fill:#ffffff;fill-opacity:1;"><g transform="translate(576.721943, 61.727687)"><path style="stroke:none" d="M 23.765625 0.703125 C 19.515625 0.703125 15.691406 -0.148438 12.296875 -1.859375 C 8.910156 -3.566406 6.257812 -5.925781 4.34375 -8.9375 C 2.425781 -11.957031 1.46875 -15.378906 1.46875 -19.203125 C 1.46875 -23.035156 2.425781 -26.457031 4.34375 -29.46875 C 6.257812 -32.488281 8.910156 -34.835938 12.296875 -36.515625 C 15.691406 -38.203125 19.515625 -39.046875 23.765625 -39.046875 C 28.066406 -39.046875 31.910156 -38.203125 35.296875 -36.515625 C 38.691406 -34.835938 41.332031 -32.488281 43.21875 -29.46875 C 45.113281 -26.457031 46.0625 -23.035156 46.0625 -19.203125 C 46.0625 -15.378906 45.113281 -11.957031 43.21875 -8.9375 C 41.332031 -5.925781 38.691406 -3.566406 35.296875 -1.859375 C 31.910156 -0.148438 28.066406 0.703125 23.765625 0.703125 Z M 23.765625 -11.640625 C 25.585938 -11.640625 27.082031 -12.304688 28.25 -13.640625 C 29.414062 -14.972656 30 -16.828125 30 -19.203125 C 30 -21.585938 29.414062 -23.4375 28.25 -24.75 C 27.082031 -26.0625 25.585938 -26.71875 23.765625 -26.71875 C 21.941406 -26.71875 20.445312 -26.0625 19.28125 -24.75 C 18.113281 -23.4375 17.53125 -21.585938 17.53125 -19.203125 C 17.53125 -16.828125 18.113281 -14.972656 19.28125 -13.640625 C 20.445312 -12.304688 21.941406 -11.640625 23.765625 -11.640625 Z M 23.765625 -11.640625 "/></g></g><g style="fill:#ffffff;fill-opacity:1;"><g transform="translate(621.594798, 61.727687)"><path style="stroke:none" d="M 18.515625 0.703125 C 15.234375 0.703125 12.003906 0.351562 8.828125 -0.34375 C 5.648438 -1.050781 3.082031 -1.960938 1.125 -3.078125 L 5.46875 -13.53125 C 7.238281 -12.457031 9.335938 -11.613281 11.765625 -11 C 14.203125 -10.394531 16.566406 -10.09375 18.859375 -10.09375 C 20.679688 -10.09375 21.953125 -10.242188 22.671875 -10.546875 C 23.398438 -10.847656 23.765625 -11.304688 23.765625 -11.921875 C 23.765625 -12.523438 23.304688 -12.941406 22.390625 -13.171875 C 21.484375 -13.410156 20.003906 -13.644531 17.953125 -13.875 C 14.816406 -14.25 12.148438 -14.726562 9.953125 -15.3125 C 7.753906 -15.894531 5.828125 -17.03125 4.171875 -18.71875 C 2.515625 -20.40625 1.6875 -22.8125 1.6875 -25.9375 C 1.6875 -28.414062 2.429688 -30.632812 3.921875 -32.59375 C 5.421875 -34.5625 7.65625 -36.128906 10.625 -37.296875 C 13.59375 -38.460938 17.15625 -39.046875 21.3125 -39.046875 C 24.207031 -39.046875 27.046875 -38.773438 29.828125 -38.234375 C 32.609375 -37.703125 34.984375 -36.921875 36.953125 -35.890625 L 32.59375 -25.453125 C 29.226562 -27.316406 25.539062 -28.25 21.53125 -28.25 C 18.0625 -28.25 16.328125 -27.644531 16.328125 -26.4375 C 16.328125 -25.820312 16.796875 -25.382812 17.734375 -25.125 C 18.671875 -24.875 20.144531 -24.628906 22.15625 -24.390625 C 25.289062 -24.023438 27.941406 -23.535156 30.109375 -22.921875 C 32.285156 -22.316406 34.203125 -21.171875 35.859375 -19.484375 C 37.515625 -17.804688 38.34375 -15.398438 38.34375 -12.265625 C 38.34375 -9.878906 37.59375 -7.703125 36.09375 -5.734375 C 34.601562 -3.773438 32.363281 -2.210938 29.375 -1.046875 C 26.382812 0.117188 22.765625 0.703125 18.515625 0.703125 Z M 18.515625 0.703125 "/></g></g></g></g></g></svg>